<svg width="0" height="0" class="hidden">
	<symbol version="1.1" id="poco-logo" xmlns="http://www.w3.org/2000/svg"
		xmlns:xlink="http://www.w3.org/1999/xlink" x="0px" y="0px" xml:space="preserve"
		viewBox="0 0 500 250">
    <g>
      <defs>
        <rect id="SVGID_1_" x="14.8" y="10.2" width="462" height="231"></rect>
      </defs>
      <clipPath id="SVGID_00000083780042387433272150000004685681444359037332_">
        <use xlink:href="#SVGID_1_"></use>
      </clipPath>
      <g>
        <path d="M15.4,205.5H16c1.8,0.5,3.9,6,6.5,16.6c0.9,2.6,1.6,4,1.8,4v-2.8c0.4-5.2,1.4-10.1,3.1-14.8
			c0.5,0,0.9-0.1,1.2-0.3c0.6,0,1.3,0.7,2.2,2.1v1.2c1.9,9.6,3.1,14.5,3.7,14.5c1.6-12.1,2.4-18.7,2.4-19.7l1.8-0.9l1.5,0.9
			c0,1.6-0.5,5.7-1.5,12.3c-1,9-1.8,13.5-2.4,13.5c-0.7,0.6-1.2,0.9-1.5,0.9c-1.9,0-3.2-2.2-4-6.5c-1.2-5.9-2-8.9-2.4-8.9
			c0,0.9-0.1,1.5-0.3,1.9c0,0.2,0.1,0.3,0.3,0.3c-0.4,1.4-0.7,4.8-0.9,10.2c0,2.5-0.8,3.7-2.4,3.7c-2,0-4.4-6.2-7.4-18.5
			c-0.7-3.1-1.6-5.9-2.8-8.6v-0.6C14.9,205.7,15.1,205.5,15.4,205.5L15.4,205.5z"></path>
        <path d="M51.5,216.9c2.4,0.4,3.7,1.5,3.7,3.4v1.2c0,1.4-3.2,2.5-9.5,3.1v0.3l0.3,1.5h1.5l1.8-0.3
			c0.7,0.4,1.3,0.6,1.8,0.6h0.3l0.6-0.3c0,1,0.3,1.5,0.9,1.5c0,0.5-1.5,1-4.6,1.5h-0.3c-3.9-1.1-5.8-2.6-5.8-4.6
			c0.3-1.8,1.3-3.7,3.1-5.6C47.2,217.7,49.2,216.9,51.5,216.9L51.5,216.9z M47.2,221.5v0.6c3.3-0.3,4.9-0.7,4.9-1.2v-0.6
			c-0.4-0.5-0.6-0.9-0.6-1.2C48.7,220,47.2,220.9,47.2,221.5z"></path>
        <path d="M58.5,205.8h0.6c0.4,0,1,1.2,1.8,3.7c1,2.4,1.5,5.2,1.5,8.3h0.3c1.2-1,1.9-1.5,2.2-1.5l0.6,0.3
			c0.4-0.2,0.7-0.3,0.9-0.3c1.8,0.4,3.7,2,5.8,4.9v3.1c0,2.5-3.2,4.3-9.5,5.6l-0.6-0.3l-1.8,0.6c-0.7-0.4-1.2-0.6-1.5-0.6v-4.9
			c0-0.7,0.1-1.2,0.3-1.5c-0.2-3.7-0.6-7.3-1.2-10.8l0.3-0.6c-0.2-0.3-0.5-2.1-0.9-5.2C57.5,206.5,58,206.3,58.5,205.8L58.5,205.8z
			 M62.4,226.8c3.6,0,5.9-1,7.1-3.1c0-1.6-0.8-3-2.4-4.3h-1.8C63.4,221.1,62.5,223.5,62.4,226.8L62.4,226.8z"></path>
        <path d="M83.5,216.6c1.8,0.2,2.8,0.6,2.8,1.2v0.3c0,0.7-1.4,1.1-4.3,1.2c0,0.4-1.3,1.8-4,4.3
			c-0.4,0.7-0.6,1.6-0.6,2.5c1,1.9,2.3,2.8,3.7,2.8l2.2-0.3H86c0,0.6,0.1,1.3,0.3,2.1l-3.4,0.9c-0.1,0-0.8-0.1-1.8-0.3l-0.6,0.3
			c-4.1-0.7-6.1-2.6-6.1-5.5V224C78,219,81.1,216.6,83.5,216.6L83.5,216.6z"></path>
        <path d="M93.8,217.8c1.3,0,3.1,1,5.2,3.1c2.3,0.7,3.4,2.2,3.4,4.3c0,2.1-1.9,3.3-5.8,3.7c0,0.2-0.2,0.3-0.6,0.3
			c-3.5,0-5.9-1.4-7.1-4.3c-0.4-0.7-0.6-1.6-0.6-2.5v-0.9C89,219.9,90.8,218.6,93.8,217.8L93.8,217.8z M92,220.3
			c-0.6,1.5-0.9,2.4-0.9,2.8c0.9,2.5,2.3,3.7,4.3,3.7h0.9c1.6,0,2.5-0.4,2.8-1.2v-0.3c0-1.4-1.1-2.5-3.4-3.1c0-0.7-1.2-1.3-3.4-1.9
			H92L92,220.3z"></path>
        <path d="M120.1,216.6c1.6,0,3.1,2.6,4.3,7.7c0.6,1.2,0.9,2.5,0.9,4c-0.8,0.4-1.4,0.6-1.8,0.6c-1,0-1.5-0.8-1.5-2.5
			c-1.4-3.3-2.2-5.3-2.2-5.8h-0.6c-0.8,1.6-1.8,3.8-2.8,6.8c-1,0.6-1.7,0.9-2.1,0.9c-0.8,0-1.8-2.3-3.1-6.8h-0.3
			c-0.6,5.3-1.2,8-1.8,8c-0.4,0.2-0.8,0.3-1.2,0.3h-0.9c-0.8,0-1.6-3.5-2.4-10.5c0.3-0.8,0.6-1.2,0.9-1.2h0.9c0.5,0,0.9,1,1.2,3.1
			h0.3c0-0.8,0.6-2.1,1.8-3.7l1.8-0.3c1,0,2,1.6,3.1,4.9c2.3-3.7,4.1-5.6,5.2-5.6H120.1z"></path>
        <path d="M128.9,216.3c0.8,0,1.4,1,1.8,3.1v4.3c0,1.3,0.2,2.8,0.6,4.3c-0.3,1-1,1.5-2.2,1.5c-1,0-1.6-2.4-1.8-7.1v-5.2
			C127.3,216.7,127.8,216.4,128.9,216.3L128.9,216.3z M129.5,209.5h1.5c0.4,0,0.6,0.3,0.6,0.6v0.9c0,0.3-0.4,0.7-1.2,1.2h-0.6
			c-1.1,0-1.7-0.3-1.8-0.9V211C128,210.8,128.5,210.3,129.5,209.5L129.5,209.5z"></path>
        <path d="M142.9,216.6c1.8,0.2,2.8,0.6,2.8,1.2v0.3c0,0.7-1.4,1.1-4.3,1.2c0,0.4-1.3,1.8-4,4.3
			c-0.4,0.7-0.6,1.6-0.6,2.5c1,1.9,2.3,2.8,3.7,2.8l2.2-0.3h2.8c0,0.6,0.1,1.3,0.3,2.1l-3.4,0.9c-0.1,0-0.8-0.1-1.8-0.3l-0.6,0.3
			c-4.1-0.7-6.1-2.6-6.1-5.5V224C137.4,219,140.5,216.6,142.9,216.6L142.9,216.6z"></path>
        <path d="M173.6,215.7h0.9c0.3,0,0.6,0.3,0.9,0.9v4c-0.5,4.1-1.5,6.2-3.1,6.2c-1.2,0.8-2.1,1.2-2.8,1.2
			c-0.6,0-1.8-0.5-3.7-1.5c-0.3,2.7-1.3,4-3.1,4c-1.1,0-2.4-1.3-4-4c-1.4-3.5-2.2-6.5-2.2-8.9c0.3-0.8,0.6-1.2,0.9-1.2
			c1.8,0,2.9,2.6,3.4,7.7l1.5,1.9l0.3-1.5c0-0.4-0.1-0.6-0.3-0.6c0.3-3.7,0.9-5.6,1.8-5.6c1.3,0,2.3,1.4,2.8,4.3
			c0.5,1.9,1.4,2.8,2.8,2.8h0.6c1.2,0,2-3.1,2.4-9.2L173.6,215.7L173.6,215.7z"></path>
        <path d="M189.8,216.6c1.2,0.1,1.8,0.4,1.8,0.9c0,0.3-1.1,1-3.4,1.8c-3.7,4.5-5.5,7.5-5.5,8.9
			c-0.5,1.6-1.3,2.5-2.4,2.5c-1.6-0.2-2.4-1.2-2.4-3.1c0-0.1,0.1-0.8,0.3-1.9c-0.2-0.4-0.3-0.7-0.3-0.9h0.3
			c-0.4-0.9-0.6-2.5-0.6-4.9v-0.3l0.3-1.5h0.6c1.4,0,2.1,1.4,2.1,4.3c0,1,0.2,1.5,0.6,1.5c2.4-4.3,4.5-6.5,6.5-6.5
			C187.7,217.1,188.5,216.8,189.8,216.6L189.8,216.6z"></path>
        <path d="M195.2,216.3c0.8,0,1.4,1,1.8,3.1v4.3c0,1.3,0.2,2.8,0.6,4.3c-0.3,1-1,1.5-2.2,1.5c-1,0-1.6-2.4-1.8-7.1v-5.2
			C193.7,216.7,194.2,216.4,195.2,216.3L195.2,216.3z M195.8,209.5h1.5c0.4,0,0.6,0.3,0.6,0.6v0.9c0,0.3-0.4,0.7-1.2,1.2h-0.6
			c-1.1,0-1.7-0.3-1.8-0.9V211C194.3,210.8,194.8,210.3,195.8,209.5L195.8,209.5z"></path>
        <path d="M204,208.6h0.9c0.6,0,0.9,1.9,0.9,5.5v3.7h2.1c0.7,0,1.2-0.1,1.5-0.3c3.7,0.3,5.5,0.7,5.5,1.2
			c0,0.5-1.8,1-5.5,1.2l-1.5-0.3l-2.1,0.3v3.4c0.4,4.5,0.6,6.9,0.6,7.1c-0.1,1-0.5,1.5-0.9,1.5h-0.9c-0.8,0-1.3-2.7-1.5-8v-3.7
			l-3.1-0.3v-0.6c0.1-0.6,0.9-0.9,2.4-0.9h0.6v-4.9C203.1,210.2,203.4,208.5,204,208.6L204,208.6z"></path>
        <path d="M221.1,208.6h0.9c0.6,0,0.9,1.9,0.9,5.5v3.7h2.1c0.7,0,1.2-0.1,1.5-0.3c3.7,0.3,5.5,0.7,5.5,1.2
			c0,0.5-1.8,1-5.5,1.2l-1.5-0.3l-2.1,0.3v3.4c0.4,4.5,0.6,6.9,0.6,7.1c-0.1,1-0.5,1.5-0.9,1.5h-0.9c-0.8,0-1.3-2.7-1.5-8v-3.7
			l-3.1-0.3v-0.6c0.1-0.6,0.9-0.9,2.4-0.9h0.6v-4.9C220.1,210.2,220.4,208.5,221.1,208.6L221.1,208.6z"></path>
        <path d="M243.4,216.9c2.4,0.4,3.7,1.5,3.7,3.4v1.2c0,1.4-3.2,2.5-9.5,3.1v0.3l0.3,1.5h1.5l1.8-0.3
			c0.7,0.4,1.3,0.6,1.8,0.6h0.3l0.6-0.3c0,1,0.3,1.5,0.9,1.5c0,0.5-1.5,1-4.6,1.5H240c-3.9-1.1-5.8-2.6-5.8-4.6
			c0.3-1.8,1.3-3.7,3.1-5.6C239,217.7,241.1,216.9,243.4,216.9L243.4,216.9z M239.1,221.5v0.6c3.3-0.3,4.9-0.7,4.9-1.2v-0.6
			c-0.4-0.5-0.6-0.9-0.6-1.2C240.5,220,239.1,220.9,239.1,221.5z"></path>
        <path d="M258.9,216.6c2,0,3.4,2.9,4,8.6c0.6,0.5,0.9,1.2,0.9,2.2v0.6c0,0.4-0.6,0.7-1.8,0.9c-1.6,0-2.8-2.8-3.4-8.3
			c-0.7,0-1.4,1.6-2.1,4.9c-1,1.6-2,2.5-3.1,2.5c-2,0-3.4-2.6-4.3-7.7c0.2-1.9,0.7-2.8,1.2-2.8h0.3c0.5,0,1.3,2,2.4,6.2
			c0.2,0,0.9-1.4,2.2-4.3C256.2,217.8,257.5,216.9,258.9,216.6z"></path>
        <path d="M276.2,205.8h0.6c0.4,0,1,1.2,1.8,3.7c1,2.4,1.5,5.2,1.5,8.3h0.3c1.2-1,1.9-1.5,2.2-1.5l0.6,0.3
			c0.4-0.2,0.7-0.3,0.9-0.3c1.8,0.4,3.7,2,5.8,4.9v3.1c0,2.5-3.2,4.3-9.5,5.6l-0.6-0.3l-1.8,0.6c-0.7-0.4-1.2-0.6-1.5-0.6v-4.9
			c0-0.7,0.1-1.2,0.3-1.5c-0.2-3.7-0.6-7.3-1.2-10.8l0.3-0.6c-0.2-0.3-0.5-2.1-0.9-5.2C275.2,206.5,275.7,206.3,276.2,205.8
			L276.2,205.8z M280.1,226.8c3.6,0,5.9-1,7.1-3.1c0-1.6-0.8-3-2.4-4.3h-1.8C281.1,221.1,280.2,223.5,280.1,226.8L280.1,226.8z"></path>
        <path d="M303.7,217.2h1.5v0.3c-2.1,10.6-4.5,16.9-7.1,18.8c-1.7,3.3-3.5,4.9-5.2,4.9h-0.3c-0.4,0-0.6-0.2-0.6-0.6V240
			c0.6,0,1.4-1,2.4-3.1c1.7-1.9,3.4-4.7,4.9-8.3c-0.5-1.7-2.4-3.9-5.8-6.8c-0.6-1.3-0.9-2.1-0.9-2.5c0-1.2,0.6-1.8,1.8-1.8
			c1.9,3,3.3,4.6,4.3,4.9c0.8,1,1.2,1.7,1.2,2.1h0.6C301.7,220.1,302.7,217.6,303.7,217.2L303.7,217.2z"></path>
        <path d="M325.8,205.8h1.2v0.9c0.6,1.8,1.1,4.6,1.5,8.6c0.2,0,0.3,0.2,0.3,0.6h-0.3c0.5,3.5,1.2,5.2,1.8,5.2
			c0.8,0.6,1.2,1,1.2,1.2c0,0.5-0.5,0.8-1.5,0.9c0.4,1.2,1.2,4.8,2.4,10.8l-0.9,0.6h-0.9c-0.9,0-2.1-3.8-3.7-11.4h-0.3l-3.7,0.3
			c-0.7-0.4-1.3-0.6-1.8-0.6c0,0.6-1.1,4.2-3.4,10.8h-1.5v-0.6c0-1.5,1-5.2,3.1-11.1c-0.4,0-0.6-0.2-0.6-0.6
			c1.3-1.1,2.2-2.7,2.4-4.6c0-0.4,1-3,3.1-8C324.2,208.4,324.7,207.3,325.8,205.8L325.8,205.8z M325.5,210.1c0,0.4-1.1,4.1-3.4,11.1
			h1.5l3.1,0.3c-0.4-1.5-0.7-3.6-0.9-6.2h0.3l-0.3-0.6v-4.6L325.5,210.1L325.5,210.1z"></path>
        <path d="M334.9,207.4h0.3c1.8,0,2.8,2.7,2.8,8c0,0.9,0.1,2.3,0.3,4c-0.6,1.7-0.9,4.6-0.9,8.6v0.9
			c0,0.7,1.1,1.2,3.4,1.5v0.9c0,0.4-0.2,0.6-0.6,0.6h-2.4c-1.6,0-2.7-1.1-3.1-3.4V224c0.4-3,0.6-4.6,0.6-4.9v-5.5
			C335.2,212.2,335.1,210.1,334.9,207.4L334.9,207.4z"></path>
        <path d="M352,216.9c2.4,0.4,3.7,1.5,3.7,3.4v1.2c0,1.4-3.2,2.5-9.5,3.1v0.3l0.3,1.5h1.5l1.8-0.3
			c0.7,0.4,1.3,0.6,1.8,0.6h0.3l0.6-0.3c0,1,0.3,1.5,0.9,1.5c0,0.5-1.5,1-4.6,1.5h-0.3c-3.9-1.1-5.8-2.6-5.8-4.6
			c0.3-1.8,1.3-3.7,3.1-5.6C347.7,217.7,349.7,216.9,352,216.9L352,216.9z M347.7,221.5v0.6c3.3-0.3,4.9-0.7,4.9-1.2v-0.6
			c-0.4-0.5-0.6-0.9-0.6-1.2C349.1,220,347.7,220.9,347.7,221.5z"></path>
        <path d="M371.2,214.8h1.8l0.3,1.2c-1.5,0.9-4,3.5-7.4,7.7c2.9,3.2,4.3,5.5,4.3,6.8v1.5l-1.5,0.3
			c-0.5-0.2-1.4-1.7-2.8-4.6l-1.8-1.9h-0.3c0,0-1.6,1.5-4.6,4.6h-0.6c-0.3,0-0.6-0.3-0.9-0.9v-1.2c2.4-2.9,3.7-4.3,4-4.3v-0.3
			c-2.4-2.2-3.7-4.2-4-6.2v-0.3c0.1-0.4,0.3-0.6,0.6-0.6h0.9c0,0.8,1.4,2.6,4.3,5.2c1.2-1.9,3.3-3.9,6.5-6.2L371.2,214.8
			L371.2,214.8z"></path>
        <path d="M385.1,205.5h0.6c1.8,0.5,3.9,6,6.5,16.6c0.9,2.6,1.6,4,1.8,4v-2.8c0.4-5.2,1.4-10.1,3.1-14.8
			c0.5,0,0.9-0.1,1.2-0.3c0.6,0,1.3,0.7,2.2,2.1v1.2c1.9,9.6,3.1,14.5,3.7,14.5c1.6-12.1,2.4-18.7,2.4-19.7l1.8-0.9l1.5,0.9
			c0,1.6-0.5,5.7-1.5,12.3c-1,9-1.8,13.5-2.4,13.5c-0.7,0.6-1.2,0.9-1.5,0.9c-1.9,0-3.2-2.2-4-6.5c-1.2-5.9-2-8.9-2.4-8.9
			c0,0.9-0.1,1.5-0.3,1.9c0,0.2,0.1,0.3,0.3,0.3c-0.4,1.4-0.7,4.8-0.9,10.2c0,2.5-0.8,3.7-2.4,3.7c-2,0-4.4-6.2-7.4-18.5
			c-0.7-3.1-1.6-5.9-2.8-8.6v-0.6C384.5,205.7,384.7,205.5,385.1,205.5L385.1,205.5z"></path>
        <path d="M413.5,216.3c0.8,0,1.4,1,1.8,3.1v4.3c0,1.3,0.2,2.8,0.6,4.3c-0.3,1-1,1.5-2.2,1.5c-1,0-1.6-2.4-1.8-7.1v-5.2
			C412,216.7,412.5,216.4,413.5,216.3L413.5,216.3z M414.2,209.5h1.5c0.4,0,0.6,0.3,0.6,0.6v0.9c0,0.3-0.4,0.7-1.2,1.2h-0.6
			c-1.1,0-1.7-0.3-1.8-0.9V211C412.6,210.8,413.1,210.3,414.2,209.5L414.2,209.5z"></path>
        <path d="M418.6,207.4h0.3c1.8,0,2.8,2.7,2.8,8c0,0.9,0.1,2.3,0.3,4c-0.6,1.7-0.9,4.6-0.9,8.6v0.9
			c0,0.7,1.1,1.2,3.4,1.5v0.9c0,0.4-0.2,0.6-0.6,0.6h-2.4c-1.6,0-2.7-1.1-3.1-3.4V224c0.4-3,0.6-4.6,0.6-4.9v-5.5
			C419,212.2,418.9,210.1,418.6,207.4L418.6,207.4z"></path>
        <path d="M426.5,206.5h1.5c0.6,0,1.2,3.2,1.8,9.5v4.9c2.6-2.6,4-4.2,4-4.9c1.1-1,2-1.5,2.8-1.5h0.6
			c0.4,0,0.6,0.3,0.6,0.9c0,0.8-1.6,3.1-4.9,6.8c1.5,0.9,3.3,3.1,5.2,6.5v0.3c0,0.5-0.7,0.8-2.2,0.9c-1.4-0.5-2.9-2.4-4.6-5.6
			c-0.6,0-0.9-0.4-0.9-1.2h-0.6v4.6c0,2.3-0.3,3.4-0.9,3.4H428c-0.6,0-0.9-1.6-0.9-4.9v-6.5c0-0.5-0.1-0.9-0.3-1.2
			c0.2-0.4,0.3-0.8,0.3-1.2c0-1.8-0.2-3.9-0.6-6.5c0-0.2,0.1-0.3,0.3-0.3l-0.3-2.1L426.5,206.5L426.5,206.5z"></path>
        <path d="M441.7,216.3c0.8,0,1.4,1,1.8,3.1v4.3c0,1.3,0.2,2.8,0.6,4.3c-0.3,1-1,1.5-2.2,1.5c-1,0-1.6-2.4-1.8-7.1v-5.2
			C440.2,216.7,440.7,216.4,441.7,216.3L441.7,216.3z M442.3,209.5h1.5c0.4,0,0.6,0.3,0.6,0.6v0.9c0,0.3-0.4,0.7-1.2,1.2h-0.6
			c-1.1,0-1.7-0.3-1.8-0.9V211C440.8,210.8,441.3,210.3,442.3,209.5L442.3,209.5z"></path>
        <path d="M456.4,216.6c2,0,3.4,2.9,4,8.6c0.6,0.5,0.9,1.2,0.9,2.2v0.6c0,0.4-0.6,0.7-1.8,0.9c-1.6,0-2.8-2.8-3.4-8.3
			c-0.7,0-1.4,1.6-2.1,4.9c-1,1.6-2,2.5-3.1,2.5c-2,0-3.4-2.6-4.3-7.7c0.2-1.9,0.7-2.8,1.2-2.8h0.3c0.5,0,1.3,2,2.4,6.2
			c0.2,0,0.9-1.4,2.2-4.3C453.7,217.8,454.9,216.9,456.4,216.6z"></path>
        <path d="M471.9,216.6c1.2,0.2,1.8,0.5,1.8,0.9v1.2h-0.3c-1.7,0-4,0.5-7.1,1.5v0.3c0,0.6,1.8,1.1,5.2,1.5l5.2,4.3v1.2
			c-1.4,1.9-3,3-4.9,3.4l-0.6-0.3c-0.1,0-0.8,0.1-1.8,0.3c-2.4-0.4-3.7-1-3.7-1.9c0.2-0.4,0.3-0.7,0.3-0.9c2.6,0.2,4.1,0.3,4.6,0.3
			c2-0.8,3-1.4,3.1-1.9c-1.2-1.2-4.3-2.5-9.5-4l-0.9-1.2v-1.2c0.5-1.1,1.5-1.9,3.1-2.2C466.3,217.7,468.2,217.2,471.9,216.6z"></path>
        <g>
          <path d="M140.3,104.9c0.6,4.5,1.4,8.1,0,12.6c0.2,6.1,0.2,16.7,1.4,17.9c-0.6,1.2-0.6,4.3-0.2,8.9
				c1.2,5.3,1,9.4,0.8,14.8c-0.2,4.1-0.4,8.1-0.8,11.8c-2.2,8.3-9.1,8.3-15.8,9.1c-5.3-8.9-6.9-16.1-5.9-22.3l-0.6-12.6
				c-0.4-8.7-0.8-17.1-1.4-25.4c-1-17.9,0.2-40-1.4-58.1c-0.2-2,0.2-0.6,0.2-2.6c-0.2-1-0.6-1.2-0.6-2.2c-0.2-1.8-0.4-3.5,0.6-5.1
				c-2-5.1,0-11.8-2.8-16.3c0-10.8,7.3-15.3,12.8-16.7c4.1-0.4,8.7,1,12.4-1.2c16.6-1.2,29.2,3.5,41.6,8.3
				c5.5,4.9,12,11.4,11.6,21.3c1.2,3.2,0.8,6.5,0.6,9.1C189,78.9,165.1,107.1,140.3,104.9z M141.2,41.7l-1.2,0.6
				c0.6,3.5,0,6.7-1,10.2l0.6,1.2c0.4,0.8,0.4,7.1,1.4,8.3c-0.6,1.6-1.4,3.8-0.8,10.8c0.2,2.6,0,8.3,0.4,10.6
				c5.1,0.4,10.9,0.8,14.8-3.5c8.5-8.9,18.1-17.7,13.6-32.7C162.9,40.6,151.5,39.2,141.2,41.7L141.2,41.7z"></path>
          <path d="M227.6,163.3c-5.9,4.5-12.8,7.3-20.9,6.3c-7.9,0.6-15.2-1.2-18.9-6.1c-5.3-4.5-9.1-10.8-13.2-17.1
				c-2.6-4.3-4.2-9.4-4.7-14.8c-0.4-5.7,0.2-11.6,2-17.1c-1-3.2,2.4-6.5,4.5-8.9c2.8-4.7,7.1-8.7,12.4-10.6c3-1,6.3-1.6,9.9-2.6
				c1.4-0.2,2.6-0.2,3.9-0.2c8.7,0.2,16.2,4.7,24.1,8.1c11.8,7.3,14.4,18.5,14.6,30.3c0,5.7-0.4,11.6-0.8,17.3
				C236.7,150.9,233.4,161.4,227.6,163.3L227.6,163.3z M202.4,113.3c-2.8,1.2-8.5-0.4-8.5,4.5c-1.2,3.2-1.4,8.7-1.8,11.8
				c1,6.1,3.5,11.2,8.1,15.7c0.8,0.4,1.6,0.6,2,1.2c5.3,3.2,13.8-0.8,16.6-5.3c2.8-2.8,1.6-10.6,1.2-14
				C215.6,122.9,216,113.3,202.4,113.3L202.4,113.3z"></path>
          <path d="M312,166.5c-7.1,6.5-13,11.2-19.9,13.6c-15.4,0.2-31.5-0.4-39.3-19.5c-1-12-5.5-25.6,1.4-37
				c5.1-13.6,17.5-21.9,30.6-25.4c8.1,0.4,17,1.6,23.9,9.8c7.3,7.5,3.6,14.2-2,18.7c-2.2,3.1-8.7,2.8-8.7,2.8
				c-4.5-1-10.5-7.7-12.4-7.3c-5.9,0.8-10.1,10-12.4,14.6c0.2,1.6,0.4,3.5,0.4,4.9c0,8.5-1.6,16.3,10.3,14.6
				c2.6-0.4,3.5-3.1,6.5-3.5c9.1-11.2,18.2-14.8,26-7.1C319.5,150,314.6,161.4,312,166.5L312,166.5z"></path>
          <path d="M379.9,159.4c-5.9,4.5-12.8,7.3-20.9,6.3c-7.9,0.6-15.2-1.2-18.9-6.1c-5.3-4.5-9.1-10.8-13.2-17.1
				c-2.6-4.3-4.2-9.4-4.7-14.8c-0.4-5.7,0.2-11.6,2-17.1c-1-3.2,2.4-6.5,4.5-8.9c2.8-4.7,7.1-8.7,12.4-10.6c3-1,6.3-1.6,9.9-2.6
				c1.4-0.2,2.6-0.2,3.9-0.2c8.7,0.2,16.2,4.7,24.1,8.1c11.8,7.3,14.4,18.5,14.6,30.3c0,5.7-0.4,11.6-0.8,17.3
				C389,147.1,385.8,157.6,379.9,159.4L379.9,159.4z M354.8,109.5c-2.8,1.2-8.5-0.4-8.5,4.5c-1.2,3.2-1.4,8.7-1.8,11.8
				c1,6.1,3.5,11.2,8.1,15.7c0.8,0.4,1.6,0.6,2,1.2c5.3,3.2,13.8-0.8,16.6-5.3c2.8-2.8,1.6-10.6,1.2-14
				C367.9,119,368.3,109.5,354.8,109.5z"></path>
          <path d="M132.9,97.8c0.6,4.5,1.4,8.1,0,12.6c0.2,6.1,0.2,16.7,1.4,17.9c-0.6,1.2-0.6,4.3-0.2,8.9
				c1.2,5.3,1,9.4,0.8,14.8c-0.2,4.1-0.4,8.1-0.8,11.8c-2.2,8.3-9.1,8.3-15.8,9.1c-5.3-8.9-6.9-16.1-5.9-22.3l-0.6-12.6
				c-0.4-8.7-0.8-17.1-1.4-25.4c-1-17.9,0.2-40-1.4-58.1c-0.2-2,0.2-0.6,0.2-2.6c-0.2-1-0.6-1.2-0.6-2.2c-0.2-1.8-0.4-3.5,0.6-5.1
				c-2-5.1,0-11.8-2.8-16.3c0-10.8,7.3-15.3,12.8-16.7c4.1-0.4,8.7,1,12.4-1.2c16.6-1.2,29.2,3.5,41.6,8.3
				c5.5,4.9,12,11.4,11.6,21.3c1.2,3.2,0.8,6.5,0.6,9.1C181.5,71.8,157.6,100,132.9,97.8z M133.7,34.6l-1.2,0.6
				c0.6,3.5,0,6.7-1,10.2l0.6,1.2c0.4,0.8,0.4,7.1,1.4,8.3c-0.6,1.6-1.4,3.8-0.8,10.8c0.2,2.6,0,8.3,0.4,10.6
				c5.1,0.4,10.9,0.8,14.8-3.5c8.5-8.9,18.1-17.7,13.6-32.7C155.4,33.5,144,32.1,133.7,34.6L133.7,34.6z"></path>
          <path d="M220.1,156.2c-5.9,4.5-12.8,7.3-20.9,6.3c-7.9,0.6-15.2-1.2-18.9-6.1c-5.3-4.5-9.1-10.8-13.2-17.1
				c-2.6-4.3-4.2-9.4-4.7-14.8c-0.4-5.7,0.2-11.6,2-17.1c-1-3.2,2.4-6.5,4.5-8.9c2.8-4.7,7.1-8.7,12.4-10.6c3-1,6.3-1.6,9.9-2.6
				c1.4-0.2,2.6-0.2,3.9-0.2c8.7,0.2,16.2,4.7,24.1,8.1c11.8,7.3,14.4,18.5,14.6,30.3c0,5.7-0.4,11.6-0.8,17.3
				C229.2,143.8,225.9,154.4,220.1,156.2L220.1,156.2z M194.9,106.2c-2.8,1.2-8.5-0.4-8.5,4.5c-1.2,3.2-1.4,8.7-1.8,11.8
				c1,6.1,3.5,11.2,8.1,15.7c0.8,0.4,1.6,0.6,2,1.2c5.3,3.2,13.8-0.8,16.6-5.3c2.8-2.8,1.6-10.6,1.2-14
				C208.1,115.8,208.5,106.2,194.9,106.2L194.9,106.2z"></path>
          <path d="M304.5,159.4c-7.1,6.5-13,11.2-19.9,13.6c-15.4,0.2-31.5-0.4-39.3-19.5c-1-12-5.5-25.6,1.4-37
				c5.1-13.6,17.5-21.9,30.6-25.4c8.1,0.4,17,1.6,23.9,9.8c7.3,7.5,3.6,14.2-2,18.7c-2.2,3.1-8.7,2.8-8.7,2.8
				c-4.5-1-10.5-7.7-12.4-7.3c-5.9,0.8-10.1,10-12.4,14.6c0.2,1.6,0.4,3.5,0.4,4.9c0,8.5-1.6,16.3,10.3,14.6
				c2.6-0.4,3.5-3.1,6.5-3.5c9.1-11.2,18.2-14.8,26-7.1C312,142.9,307.1,154.3,304.5,159.4L304.5,159.4z"></path>
          <path d="M372.4,152.4c-5.9,4.5-12.8,7.3-20.9,6.3c-7.9,0.6-15.2-1.2-18.9-6.1c-5.3-4.5-9.1-10.8-13.2-17.1
				c-2.6-4.3-4.2-9.4-4.7-14.8c-0.4-5.7,0.2-11.6,2-17.1c-1-3.2,2.4-6.5,4.5-8.9c2.8-4.7,7.1-8.7,12.4-10.6c3-1,6.3-1.6,9.9-2.6
				c1.4-0.2,2.6-0.2,3.9-0.2c8.7,0.2,16.2,4.7,24.1,8.1c11.8,7.3,14.4,18.5,14.6,30.3c0,5.7-0.4,11.6-0.8,17.3
				C381.5,140,378.3,150.5,372.4,152.4L372.4,152.4z M347.2,102.4c-2.8,1.2-8.5-0.4-8.5,4.5c-1.2,3.2-1.4,8.7-1.8,11.8
				c1,6.1,3.5,11.2,8.1,15.7c0.8,0.4,1.6,0.6,2,1.2c5.3,3.2,13.8-0.8,16.6-5.3c2.8-2.8,1.6-10.6,1.2-14
				C360.4,111.9,360.8,102.4,347.2,102.4z"></path>
        </g>
      </g>
    </g>
  </symbol>
</svg>